<?xml version="1.0" encoding="UTF-8" ?>
<!DOCTYPE svg PUBLIC "-//W3C//DTD SVG 1.1//EN" "http://www.w3.org/Graphics/SVG/1.1/DTD/svg11.dtd">
<svg width="480pt" height="184pt" viewBox="0 0 480 184" version="1.1" xmlns="http://www.w3.org/2000/svg">
<g id="#fefffeff">
<path fill="#fefffe" opacity="1.00" d=" M 0.00 0.00 L 480.00 0.00 L 480.00 184.00 L 0.00 184.00 L 0.00 0.00 M 41.44 18.11 C 41.40 22.31 41.43 26.51 41.51 30.72 C 45.66 31.32 49.83 30.68 54.00 30.68 C 78.68 30.76 103.37 30.69 128.05 30.65 C 127.08 26.41 127.15 22.07 127.92 17.80 C 101.60 17.68 75.29 17.81 48.97 17.73 C 46.45 17.71 43.94 17.85 41.44 18.11 M 155.42 18.46 C 155.42 39.08 155.36 59.71 155.42 80.33 C 159.03 80.30 162.64 80.30 166.24 80.36 C 166.44 68.13 166.17 55.90 166.43 43.68 C 168.95 55.94 171.79 68.13 174.45 80.36 C 179.11 80.30 183.77 80.32 188.43 80.35 C 188.41 59.72 188.37 39.08 188.45 18.45 C 184.71 18.44 180.98 18.44 177.25 18.42 C 176.67 24.94 176.68 31.51 176.89 38.05 C 177.32 43.44 177.78 48.86 177.28 54.27 C 174.90 42.28 171.49 30.53 169.08 18.55 C 164.53 18.37 159.97 18.41 155.42 18.46 M 195.75 18.47 C 195.64 39.09 195.66 59.72 195.74 80.34 C 199.87 80.30 204.01 80.30 208.15 80.35 C 208.37 59.71 208.28 39.07 208.19 18.43 C 204.04 18.45 199.90 18.43 195.75 18.47 M 216.22 18.42 C 216.25 39.05 216.26 59.69 216.21 80.33 C 220.09 80.31 223.97 80.32 227.85 80.36 C 228.36 75.25 228.20 70.12 228.20 65.00 C 228.12 49.48 228.35 33.96 228.09 18.45 C 224.13 18.44 220.18 18.46 216.22 18.42 M 236.24 18.46 C 235.46 28.62 236.00 38.82 235.84 49.00 C 236.00 59.45 235.45 69.93 236.25 80.36 C 239.73 80.30 243.21 80.29 246.70 80.32 C 246.97 65.72 246.21 51.08 247.11 36.51 C 249.81 50.99 250.26 65.79 252.62 80.32 C 256.10 80.33 259.59 80.29 263.08 80.21 C 264.88 63.42 267.06 46.68 268.61 29.86 C 268.82 46.69 268.60 63.52 268.75 80.35 C 272.74 80.30 276.74 80.29 280.73 80.37 C 280.72 59.73 280.77 39.09 280.72 18.45 C 274.74 18.47 268.76 18.39 262.78 18.53 C 261.67 29.86 259.68 41.10 257.90 52.34 C 256.15 41.08 255.27 29.71 253.42 18.46 C 247.69 18.45 241.96 18.48 236.24 18.46 M 288.19 18.41 C 288.19 39.06 288.18 59.71 288.19 80.36 C 294.46 80.25 300.72 80.43 306.99 80.30 C 312.38 80.29 318.08 76.95 319.43 71.48 C 320.71 66.17 320.75 60.53 319.84 55.16 C 319.35 51.85 316.71 49.59 314.31 47.54 C 320.04 41.80 321.01 32.40 317.64 25.21 C 315.48 20.77 310.37 19.00 305.76 18.60 C 299.91 18.19 294.04 18.56 288.19 18.41 M 336.35 18.46 C 330.14 19.83 326.05 25.79 325.76 31.95 C 325.44 42.29 325.77 52.66 325.61 63.01 C 325.59 68.17 326.10 74.11 330.18 77.79 C 335.66 82.37 343.78 82.41 350.20 79.98 C 355.87 78.02 358.59 71.69 358.57 66.06 C 358.57 55.04 358.60 44.03 358.55 33.01 C 358.66 27.73 356.07 22.32 351.34 19.74 C 346.76 17.37 341.27 17.18 336.35 18.46 M 361.42 18.44 C 361.43 22.04 361.44 25.64 361.42 29.24 C 364.37 29.47 367.65 28.67 370.37 29.96 C 370.59 46.72 370.45 63.49 370.43 80.26 C 374.62 80.34 378.81 80.33 383.01 80.25 C 383.51 63.28 383.05 46.28 383.25 29.30 C 386.23 29.35 389.21 29.26 392.20 29.28 C 392.26 25.66 392.25 22.05 392.15 18.44 C 381.91 18.42 371.67 18.48 361.42 18.44 M 41.53 32.58 C 41.37 36.39 41.61 40.21 41.32 44.02 C 39.59 45.95 36.64 45.89 34.35 46.83 C 21.76 50.46 13.67 62.05 8.34 73.33 C 4.54 82.41 1.08 92.00 1.22 101.97 C 1.22 107.85 0.78 114.07 3.58 119.47 C 6.24 125.94 12.70 131.39 20.01 130.67 C 27.94 131.14 34.13 124.22 36.04 117.07 C 39.49 107.09 35.74 96.74 33.02 87.08 C 30.85 78.71 27.12 70.29 28.62 61.47 C 30.21 55.80 35.80 52.74 40.61 50.12 C 41.89 54.64 41.37 59.37 41.44 64.00 C 41.43 89.69 41.41 115.39 41.46 141.08 C 41.22 147.04 44.20 152.60 48.09 156.92 C 53.21 162.16 60.70 164.71 67.95 164.49 C 78.30 164.43 88.64 164.46 98.99 164.47 C 103.22 164.45 107.55 164.74 111.66 163.50 C 119.58 161.63 126.46 155.50 128.75 147.63 C 130.62 141.61 130.22 135.22 130.24 129.00 C 130.23 101.67 130.23 74.34 130.24 47.00 C 130.32 42.08 130.29 37.15 129.60 32.26 C 127.09 31.91 124.56 31.64 122.02 31.67 C 98.35 31.70 74.67 31.71 50.99 31.68 C 47.81 31.65 44.67 32.17 41.53 32.58 M 216.75 98.93 C 216.67 118.44 216.76 137.95 216.72 157.46 C 220.06 157.45 223.40 157.43 226.74 157.52 C 226.83 156.89 227.03 155.63 227.13 155.00 C 230.60 158.45 236.46 159.32 240.54 156.44 C 243.90 153.36 244.56 148.38 244.59 144.05 C 244.48 136.77 244.71 129.49 244.47 122.22 C 244.15 117.71 241.22 112.19 236.00 112.58 C 232.59 112.03 229.82 114.22 227.43 116.30 C 227.60 110.53 227.53 104.75 227.51 98.97 C 223.92 98.95 220.34 98.94 216.75 98.93 M 282.05 98.93 C 281.79 118.43 282.05 137.94 281.91 157.44 C 285.53 157.44 289.16 157.44 292.78 157.46 C 292.74 137.96 292.79 118.47 292.75 98.97 C 289.18 98.97 285.61 98.95 282.05 98.93 M 387.54 98.93 C 387.47 118.44 387.54 137.95 387.50 157.47 C 391.10 157.44 394.71 157.45 398.33 157.48 C 398.29 151.62 397.43 145.32 401.06 140.24 C 402.52 145.93 403.99 151.63 405.05 157.42 C 408.95 157.48 412.86 157.46 416.77 157.41 C 414.71 149.61 412.29 141.92 409.95 134.20 C 409.39 132.10 408.48 129.75 409.59 127.66 C 411.77 122.85 414.12 118.12 416.19 113.26 C 412.42 113.17 408.66 113.18 404.90 113.21 C 402.80 119.59 400.59 125.94 398.42 132.30 C 398.14 121.19 398.36 110.08 398.30 98.96 C 394.71 98.97 391.12 98.97 387.54 98.93 M 156.07 101.80 C 155.88 120.35 156.14 138.90 155.91 157.45 C 163.72 157.49 171.52 157.43 179.33 157.49 C 179.74 154.42 179.90 151.32 179.96 148.22 C 175.56 148.17 171.16 148.16 166.77 148.21 C 166.83 132.72 166.79 117.23 166.78 101.74 C 163.21 101.82 159.64 101.85 156.07 101.80 M 309.75 101.78 C 309.83 120.36 309.74 138.93 309.79 157.51 C 313.03 157.46 316.28 157.44 319.53 157.43 C 319.47 143.12 319.19 128.80 319.63 114.50 C 320.15 116.64 320.51 118.81 320.62 121.01 C 321.55 133.18 323.40 145.26 324.19 157.45 C 327.31 157.44 330.44 157.44 333.57 157.50 C 335.34 143.18 336.86 128.84 338.31 114.50 C 338.62 117.31 338.83 120.14 338.79 122.98 C 338.64 134.48 338.73 145.98 338.72 157.48 C 342.11 157.42 345.50 157.42 348.89 157.50 C 348.94 138.92 348.92 120.34 348.90 101.77 C 343.80 101.83 338.71 101.79 333.61 101.79 C 332.20 112.38 330.72 122.98 329.15 133.55 C 327.94 122.97 326.76 112.36 325.38 101.79 C 320.17 101.80 314.96 101.80 309.75 101.78 M 188.28 115.31 C 185.23 117.84 184.99 122.04 184.22 125.64 C 187.72 125.67 191.23 125.66 194.73 125.70 C 195.04 124.31 195.29 122.91 195.71 121.55 C 196.90 120.77 198.33 120.07 199.37 121.50 C 200.26 124.26 200.07 127.21 200.17 130.08 C 195.00 130.51 188.90 130.91 185.63 135.58 C 182.18 141.17 182.40 148.79 185.63 154.43 C 188.64 159.57 196.38 159.07 200.19 155.12 C 200.51 155.91 200.84 156.70 201.17 157.50 C 204.41 157.43 207.66 157.45 210.90 157.48 C 210.11 145.41 210.71 133.31 210.46 121.23 C 209.99 116.50 205.65 112.97 201.03 112.69 C 196.72 112.45 191.73 112.27 188.28 115.31 M 256.83 113.79 C 251.92 116.10 249.43 121.72 249.64 126.95 C 249.80 133.97 249.34 141.02 249.90 148.01 C 250.28 152.65 253.61 156.89 258.30 157.72 C 263.23 158.40 269.12 158.76 273.03 155.06 C 276.21 152.09 276.50 147.51 277.00 143.47 C 273.45 143.44 269.90 143.46 266.36 143.40 C 266.06 145.53 265.70 147.65 265.20 149.74 C 263.65 149.45 262.04 149.27 260.67 148.42 C 260.23 145.02 260.48 141.59 260.42 138.18 C 265.90 138.18 271.39 138.10 276.88 138.21 C 276.80 133.53 277.02 128.85 276.70 124.18 C 276.25 119.53 273.55 114.58 268.80 113.26 C 264.91 112.23 260.57 112.19 256.83 113.79 M 360.94 113.97 C 356.46 115.98 355.51 121.23 355.15 125.61 C 358.67 125.68 362.19 125.68 365.72 125.75 C 365.98 123.99 366.26 122.23 366.60 120.48 C 367.88 120.89 369.29 121.05 370.42 121.86 C 370.58 124.61 370.52 127.36 370.49 130.11 C 365.97 130.67 360.68 130.68 357.40 134.37 C 353.86 137.84 353.80 143.20 354.17 147.81 C 354.50 151.54 355.93 155.75 359.56 157.46 C 363.21 158.86 367.53 158.16 370.43 155.49 C 373.23 158.91 377.97 157.00 381.77 157.46 C 380.85 146.65 381.41 135.79 381.29 124.95 C 381.62 120.76 380.17 115.96 376.17 113.97 C 371.42 111.96 365.70 112.04 360.94 113.97 M 422.84 115.86 C 419.32 119.18 418.49 124.35 418.70 128.98 C 418.92 135.30 418.38 141.65 418.99 147.94 C 419.39 152.49 422.53 156.84 427.19 157.66 C 432.17 158.32 438.15 158.86 442.10 155.07 C 445.36 152.13 445.54 147.50 446.08 143.45 C 442.53 143.43 438.99 143.48 435.45 143.39 C 435.14 145.44 435.12 147.63 434.00 149.46 C 432.37 149.59 430.52 149.73 429.74 147.95 C 429.27 144.71 429.56 141.41 429.52 138.15 C 434.98 138.20 440.44 138.09 445.91 138.23 C 445.83 133.54 446.13 128.84 445.76 124.16 C 445.39 119.18 442.10 113.98 436.94 113.01 C 432.19 112.12 426.49 112.23 422.84 115.86 M 451.11 113.19 C 451.07 127.96 451.08 142.73 451.09 157.50 C 454.67 157.42 458.26 157.43 461.86 157.48 C 461.82 149.96 461.81 142.44 461.84 134.92 C 462.01 132.44 462.02 129.65 463.62 127.60 C 465.44 125.54 468.41 125.74 470.91 125.51 C 470.81 121.08 470.90 116.65 470.78 112.23 C 466.41 112.59 463.31 115.63 461.24 119.24 C 461.26 117.23 461.30 115.22 461.34 113.21 C 457.93 113.18 454.52 113.15 451.11 113.19 Z" />
<path fill="#fefffe" opacity="1.00" d=" M 300.35 28.02 C 302.54 28.48 305.83 27.72 306.83 30.36 C 307.93 33.35 307.68 36.76 307.11 39.85 C 306.45 43.03 302.79 42.60 300.35 42.98 C 300.20 38.00 300.23 33.01 300.35 28.02 Z" />
<path fill="#fefffe" opacity="1.00" d=" M 339.22 28.29 C 340.97 28.30 342.75 28.23 344.50 28.45 C 346.06 30.20 346.07 32.71 346.21 34.92 C 346.24 43.28 346.15 51.64 346.23 60.00 C 346.22 63.42 346.38 66.94 345.21 70.22 C 343.34 71.95 339.94 71.58 338.71 69.31 C 338.10 66.94 338.27 64.46 338.22 62.04 C 338.30 53.00 338.20 43.97 338.25 34.93 C 338.20 32.68 338.68 30.47 339.22 28.29 Z" />
<path fill="#fefffe" opacity="1.00" d=" M 84.92 42.48 C 87.25 45.92 86.54 50.16 86.61 54.07 C 86.60 56.58 86.45 59.10 86.07 61.59 C 85.35 60.14 84.34 58.72 84.39 57.02 C 84.26 52.18 84.14 47.28 84.92 42.48 Z" />
<path fill="#fefffe" opacity="1.00" d=" M 300.38 51.87 C 302.68 52.52 306.06 52.22 307.12 54.87 C 308.64 59.17 308.59 64.00 307.33 68.36 C 306.44 71.33 302.80 70.88 300.40 71.53 C 300.20 64.98 300.18 58.42 300.38 51.87 Z" />
<path fill="#fefffe" opacity="1.00" d=" M 6.47 94.10 C 7.98 78.85 15.12 63.82 27.76 54.76 C 25.38 60.43 23.30 66.51 24.60 72.74 C 26.93 83.62 32.14 93.74 33.63 104.83 C 34.32 111.28 32.72 118.33 28.08 123.06 C 25.19 126.01 20.33 127.72 16.54 125.47 C 12.74 122.94 9.90 119.13 7.88 115.08 C 4.84 108.51 5.56 101.06 6.47 94.10 Z" />
<path fill="#fefffe" opacity="1.00" d=" M 260.53 123.44 C 260.68 120.66 265.41 120.16 266.08 122.92 C 266.79 125.47 266.63 128.15 266.72 130.77 C 264.61 130.78 262.51 130.79 260.41 130.79 C 260.43 128.34 260.28 125.88 260.53 123.44 Z" />
<path fill="#fefffe" opacity="1.00" d=" M 431.32 121.22 C 436.66 120.11 435.60 127.41 435.85 130.72 C 433.74 130.77 431.64 130.79 429.55 130.81 C 429.91 127.64 428.19 123.35 431.32 121.22 Z" />
<path fill="#fefffe" opacity="1.00" d=" M 228.65 122.54 C 230.17 122.19 231.74 122.28 233.29 122.26 C 234.15 129.17 233.63 136.14 233.77 143.08 C 233.91 145.23 233.17 147.25 232.20 149.12 C 230.96 148.88 229.72 148.64 228.49 148.41 C 226.99 143.40 227.65 138.14 227.53 133.00 C 227.58 129.50 227.08 125.81 228.65 122.54 Z" />
<path fill="#fefffe" opacity="1.00" d=" M 195.00 139.15 C 196.61 138.23 198.46 137.85 200.21 137.28 C 200.47 141.25 200.36 145.30 198.87 149.04 C 197.44 148.88 195.99 148.81 194.60 148.43 C 192.90 145.50 193.32 141.98 195.00 139.15 Z" />
<path fill="#fefffe" opacity="1.00" d=" M 365.38 139.43 C 366.86 138.36 368.67 137.92 370.35 137.26 C 370.46 140.79 370.78 144.36 370.21 147.87 C 369.03 149.25 367.02 149.03 365.48 148.56 C 363.84 145.76 364.05 142.30 365.38 139.43 Z" />
</g>
<g id="#fb4b43ff">
<path fill="#fb4b43" opacity="1.00" d=" M 41.44 18.11 C 43.94 17.85 46.45 17.71 48.97 17.73 C 75.29 17.81 101.60 17.68 127.92 17.80 C 127.15 22.07 127.08 26.41 128.05 30.65 C 103.37 30.69 78.68 30.76 54.00 30.68 C 49.83 30.68 45.66 31.32 41.51 30.72 C 41.43 26.51 41.40 22.31 41.44 18.11 Z" />
<path fill="#fb4b43" opacity="1.00" d=" M 155.42 18.46 C 159.97 18.41 164.53 18.37 169.08 18.55 C 171.49 30.53 174.90 42.28 177.28 54.27 C 177.78 48.86 177.32 43.44 176.89 38.05 C 176.68 31.51 176.67 24.94 177.25 18.42 C 180.98 18.44 184.71 18.44 188.45 18.45 C 188.37 39.08 188.41 59.72 188.43 80.35 C 183.77 80.32 179.11 80.30 174.45 80.36 C 171.79 68.13 168.95 55.94 166.43 43.68 C 166.17 55.90 166.44 68.13 166.24 80.36 C 162.64 80.30 159.03 80.30 155.42 80.33 C 155.36 59.71 155.42 39.08 155.42 18.46 Z" />
<path fill="#fb4b43" opacity="1.00" d=" M 195.75 18.47 C 199.90 18.43 204.04 18.45 208.19 18.43 C 208.28 39.07 208.37 59.71 208.15 80.35 C 204.01 80.30 199.87 80.30 195.74 80.34 C 195.66 59.72 195.64 39.09 195.75 18.47 Z" />
<path fill="#fb4b43" opacity="1.00" d=" M 216.22 18.42 C 220.18 18.46 224.13 18.44 228.09 18.45 C 228.35 33.96 228.12 49.48 228.20 65.00 C 228.20 70.12 228.36 75.25 227.85 80.36 C 223.97 80.32 220.09 80.31 216.21 80.33 C 216.26 59.69 216.25 39.05 216.22 18.42 Z" />
<path fill="#fb4b43" opacity="1.00" d=" M 236.24 18.46 C 241.96 18.48 247.69 18.45 253.42 18.46 C 255.27 29.71 256.15 41.08 257.90 52.34 C 259.68 41.10 261.67 29.86 262.78 18.53 C 268.76 18.39 274.74 18.47 280.72 18.45 C 280.77 39.09 280.72 59.73 280.73 80.37 C 276.74 80.29 272.74 80.30 268.75 80.35 C 268.60 63.52 268.82 46.69 268.61 29.86 C 267.06 46.68 264.88 63.42 263.08 80.21 C 259.59 80.29 256.10 80.33 252.62 80.32 C 250.26 65.79 249.81 50.99 247.11 36.51 C 246.21 51.08 246.97 65.72 246.70 80.32 C 243.21 80.29 239.73 80.30 236.25 80.36 C 235.45 69.93 236.00 59.45 235.84 49.00 C 236.00 38.82 235.46 28.62 236.24 18.46 Z" />
<path fill="#fb4b43" opacity="1.00" d=" M 288.19 18.41 C 294.04 18.56 299.91 18.19 305.76 18.60 C 310.37 19.00 315.48 20.77 317.64 25.21 C 321.01 32.40 320.04 41.80 314.31 47.54 C 316.71 49.59 319.35 51.85 319.84 55.16 C 320.75 60.53 320.71 66.17 319.43 71.48 C 318.08 76.95 312.38 80.29 306.99 80.30 C 300.72 80.43 294.46 80.25 288.19 80.36 C 288.18 59.71 288.19 39.06 288.19 18.41 M 300.35 28.02 C 300.23 33.01 300.20 38.00 300.35 42.98 C 302.79 42.60 306.45 43.03 307.11 39.85 C 307.68 36.76 307.93 33.35 306.83 30.36 C 305.83 27.72 302.54 28.48 300.35 28.02 M 300.38 51.87 C 300.18 58.42 300.20 64.98 300.40 71.53 C 302.80 70.88 306.44 71.33 307.33 68.36 C 308.59 64.00 308.64 59.17 307.12 54.87 C 306.06 52.22 302.68 52.52 300.38 51.87 Z" />
<path fill="#fb4b43" opacity="1.00" d=" M 336.35 18.46 C 341.27 17.18 346.76 17.37 351.34 19.74 C 356.07 22.32 358.66 27.73 358.55 33.01 C 358.60 44.03 358.57 55.04 358.57 66.06 C 358.59 71.69 355.87 78.02 350.20 79.98 C 343.78 82.41 335.66 82.37 330.18 77.79 C 326.10 74.11 325.59 68.17 325.61 63.01 C 325.77 52.66 325.44 42.29 325.76 31.95 C 326.05 25.79 330.14 19.83 336.35 18.46 M 339.22 28.29 C 338.68 30.47 338.20 32.68 338.25 34.93 C 338.20 43.97 338.30 53.00 338.22 62.04 C 338.27 64.46 338.10 66.94 338.71 69.31 C 339.94 71.58 343.34 71.95 345.21 70.22 C 346.38 66.94 346.22 63.42 346.23 60.00 C 346.15 51.64 346.24 43.28 346.21 34.92 C 346.07 32.71 346.06 30.20 344.50 28.45 C 342.75 28.23 340.97 28.30 339.22 28.29 Z" />
<path fill="#fb4b43" opacity="1.00" d=" M 361.42 18.44 C 371.67 18.48 381.91 18.42 392.15 18.44 C 392.25 22.05 392.26 25.66 392.20 29.28 C 389.21 29.26 386.23 29.35 383.25 29.30 C 383.05 46.28 383.51 63.28 383.01 80.25 C 378.81 80.33 374.62 80.34 370.43 80.26 C 370.45 63.49 370.59 46.72 370.37 29.96 C 367.65 28.67 364.37 29.47 361.42 29.24 C 361.44 25.64 361.43 22.04 361.42 18.44 Z" />
<path fill="#fb4b43" opacity="1.00" d=" M 41.53 32.58 C 44.67 32.17 47.81 31.65 50.99 31.68 C 74.67 31.71 98.35 31.70 122.02 31.67 C 124.56 31.64 127.09 31.91 129.60 32.26 C 130.29 37.15 130.32 42.08 130.24 47.00 C 130.23 74.34 130.23 101.67 130.24 129.00 C 130.22 135.22 130.62 141.61 128.75 147.63 C 126.46 155.50 119.58 161.63 111.66 163.50 C 107.55 164.74 103.22 164.45 98.99 164.47 C 88.64 164.46 78.30 164.43 67.95 164.49 C 60.70 164.71 53.21 162.16 48.09 156.92 C 44.20 152.60 41.22 147.04 41.46 141.08 C 41.41 115.39 41.43 89.69 41.44 64.00 C 41.37 59.37 41.89 54.64 40.61 50.12 C 35.80 52.74 30.21 55.80 28.62 61.47 C 27.12 70.29 30.85 78.71 33.02 87.08 C 35.74 96.74 39.49 107.09 36.04 117.07 C 34.13 124.22 27.94 131.14 20.01 130.67 C 12.70 131.39 6.24 125.94 3.58 119.47 C 0.78 114.07 1.22 107.85 1.22 101.97 C 1.08 92.00 4.54 82.41 8.34 73.33 C 13.67 62.05 21.76 50.46 34.35 46.83 C 36.64 45.89 39.59 45.95 41.32 44.02 C 41.61 40.21 41.37 36.39 41.53 32.58 M 84.92 42.48 C 84.14 47.28 84.26 52.18 84.39 57.02 C 84.34 58.72 85.35 60.14 86.07 61.59 C 86.45 59.10 86.60 56.58 86.61 54.07 C 86.54 50.16 87.25 45.92 84.92 42.48 M 6.47 94.10 C 5.56 101.06 4.84 108.51 7.88 115.08 C 9.90 119.13 12.74 122.94 16.54 125.47 C 20.33 127.72 25.19 126.01 28.08 123.06 C 32.72 118.33 34.32 111.28 33.63 104.83 C 32.14 93.74 26.93 83.62 24.60 72.74 C 23.30 66.51 25.38 60.43 27.76 54.76 C 15.12 63.82 7.98 78.85 6.47 94.10 Z" />
</g>
<g id="#3b3b39ff">
<path fill="#3b3b39" opacity="1.00" d=" M 216.75 98.93 C 220.34 98.94 223.92 98.95 227.51 98.97 C 227.53 104.75 227.60 110.53 227.43 116.30 C 229.82 114.22 232.59 112.03 236.00 112.58 C 241.22 112.19 244.15 117.71 244.47 122.22 C 244.71 129.49 244.48 136.77 244.59 144.05 C 244.56 148.38 243.90 153.36 240.54 156.44 C 236.46 159.32 230.60 158.45 227.13 155.00 C 227.03 155.63 226.83 156.89 226.74 157.52 C 223.40 157.43 220.06 157.45 216.72 157.46 C 216.76 137.95 216.67 118.44 216.75 98.93 M 228.65 122.54 C 227.08 125.81 227.58 129.50 227.53 133.00 C 227.65 138.14 226.99 143.40 228.49 148.41 C 229.72 148.64 230.96 148.88 232.20 149.12 C 233.17 147.25 233.91 145.23 233.77 143.08 C 233.63 136.14 234.15 129.17 233.29 122.26 C 231.74 122.28 230.17 122.19 228.65 122.54 Z" />
<path fill="#3b3b39" opacity="1.00" d=" M 282.05 98.93 C 285.61 98.95 289.18 98.97 292.75 98.97 C 292.79 118.47 292.74 137.96 292.78 157.46 C 289.16 157.44 285.53 157.44 281.91 157.44 C 282.05 137.94 281.79 118.43 282.05 98.93 Z" />
<path fill="#3b3b39" opacity="1.00" d=" M 387.54 98.93 C 391.12 98.97 394.71 98.97 398.30 98.96 C 398.36 110.08 398.14 121.19 398.42 132.30 C 400.59 125.94 402.80 119.59 404.90 113.21 C 408.66 113.18 412.42 113.17 416.19 113.26 C 414.12 118.12 411.77 122.85 409.59 127.66 C 408.48 129.75 409.39 132.10 409.95 134.20 C 412.29 141.92 414.71 149.61 416.77 157.41 C 412.86 157.46 408.95 157.48 405.05 157.42 C 403.99 151.63 402.52 145.93 401.06 140.24 C 397.43 145.32 398.29 151.62 398.33 157.48 C 394.71 157.45 391.10 157.44 387.50 157.47 C 387.54 137.95 387.47 118.44 387.54 98.93 Z" />
<path fill="#3b3b39" opacity="1.00" d=" M 156.07 101.80 C 159.64 101.85 163.21 101.82 166.78 101.74 C 166.79 117.23 166.83 132.72 166.77 148.21 C 171.16 148.16 175.56 148.17 179.96 148.22 C 179.90 151.32 179.74 154.42 179.33 157.49 C 171.52 157.43 163.72 157.49 155.91 157.45 C 156.14 138.90 155.88 120.35 156.07 101.80 Z" />
<path fill="#3b3b39" opacity="1.00" d=" M 309.75 101.78 C 314.96 101.80 320.17 101.80 325.38 101.79 C 326.76 112.36 327.94 122.97 329.15 133.55 C 330.72 122.98 332.20 112.38 333.61 101.79 C 338.71 101.79 343.80 101.83 348.90 101.77 C 348.92 120.34 348.94 138.92 348.89 157.50 C 345.50 157.42 342.11 157.42 338.72 157.48 C 338.73 145.98 338.64 134.48 338.79 122.98 C 338.83 120.14 338.62 117.31 338.31 114.50 C 336.86 128.84 335.34 143.18 333.57 157.50 C 330.44 157.44 327.31 157.44 324.19 157.45 C 323.40 145.26 321.55 133.18 320.62 121.01 C 320.51 118.81 320.15 116.64 319.63 114.50 C 319.19 128.80 319.47 143.12 319.53 157.43 C 316.28 157.44 313.03 157.46 309.79 157.51 C 309.74 138.93 309.83 120.36 309.75 101.78 Z" />
<path fill="#3b3b39" opacity="1.00" d=" M 188.28 115.31 C 191.73 112.27 196.72 112.45 201.03 112.69 C 205.65 112.97 209.99 116.50 210.46 121.23 C 210.71 133.31 210.11 145.41 210.90 157.48 C 207.66 157.45 204.41 157.43 201.17 157.50 C 200.84 156.70 200.51 155.91 200.19 155.12 C 196.38 159.07 188.64 159.57 185.63 154.43 C 182.40 148.79 182.18 141.17 185.63 135.58 C 188.90 130.91 195.00 130.51 200.17 130.08 C 200.07 127.21 200.26 124.26 199.37 121.50 C 198.33 120.07 196.90 120.77 195.71 121.55 C 195.29 122.91 195.04 124.31 194.73 125.70 C 191.23 125.66 187.72 125.67 184.22 125.64 C 184.99 122.04 185.23 117.84 188.28 115.31 M 195.00 139.15 C 193.32 141.98 192.90 145.50 194.60 148.43 C 195.99 148.81 197.44 148.88 198.87 149.04 C 200.36 145.30 200.47 141.25 200.21 137.28 C 198.46 137.85 196.61 138.23 195.00 139.15 Z" />
<path fill="#3b3b39" opacity="1.00" d=" M 256.83 113.79 C 260.57 112.19 264.91 112.23 268.80 113.26 C 273.55 114.58 276.25 119.53 276.70 124.18 C 277.02 128.85 276.80 133.53 276.88 138.21 C 271.39 138.10 265.90 138.18 260.42 138.18 C 260.48 141.59 260.23 145.02 260.67 148.42 C 262.04 149.27 263.65 149.45 265.20 149.74 C 265.70 147.65 266.06 145.53 266.36 143.40 C 269.90 143.46 273.45 143.44 277.00 143.47 C 276.50 147.51 276.21 152.09 273.03 155.06 C 269.12 158.76 263.23 158.40 258.30 157.72 C 253.61 156.89 250.28 152.65 249.90 148.01 C 249.34 141.02 249.80 133.97 249.64 126.95 C 249.43 121.72 251.92 116.10 256.83 113.79 M 260.53 123.44 C 260.28 125.88 260.43 128.34 260.41 130.79 C 262.51 130.79 264.61 130.78 266.72 130.77 C 266.63 128.15 266.79 125.47 266.08 122.92 C 265.41 120.16 260.68 120.66 260.53 123.44 Z" />
<path fill="#3b3b39" opacity="1.00" d=" M 360.94 113.97 C 365.70 112.04 371.42 111.96 376.17 113.97 C 380.17 115.96 381.62 120.76 381.29 124.95 C 381.41 135.79 380.85 146.65 381.77 157.46 C 377.97 157.00 373.23 158.91 370.43 155.49 C 367.53 158.16 363.21 158.86 359.56 157.46 C 355.93 155.75 354.50 151.54 354.17 147.81 C 353.80 143.20 353.86 137.84 357.40 134.37 C 360.68 130.68 365.97 130.67 370.49 130.11 C 370.52 127.36 370.58 124.61 370.42 121.86 C 369.29 121.05 367.88 120.89 366.60 120.48 C 366.26 122.23 365.98 123.99 365.72 125.75 C 362.19 125.68 358.67 125.68 355.15 125.61 C 355.51 121.23 356.46 115.98 360.94 113.97 M 365.38 139.43 C 364.05 142.30 363.84 145.76 365.48 148.56 C 367.02 149.03 369.03 149.25 370.21 147.87 C 370.78 144.36 370.46 140.79 370.35 137.26 C 368.67 137.92 366.86 138.36 365.38 139.43 Z" />
<path fill="#3b3b39" opacity="1.00" d=" M 422.84 115.86 C 426.49 112.23 432.19 112.12 436.94 113.01 C 442.10 113.98 445.39 119.18 445.76 124.16 C 446.13 128.84 445.83 133.54 445.91 138.23 C 440.44 138.09 434.98 138.20 429.52 138.15 C 429.56 141.41 429.27 144.71 429.74 147.95 C 430.52 149.73 432.37 149.59 434.00 149.46 C 435.12 147.63 435.14 145.44 435.45 143.39 C 438.99 143.48 442.53 143.43 446.08 143.45 C 445.54 147.50 445.36 152.13 442.10 155.07 C 438.15 158.86 432.17 158.32 427.19 157.66 C 422.53 156.84 419.39 152.49 418.99 147.94 C 418.38 141.65 418.92 135.30 418.70 128.98 C 418.49 124.35 419.32 119.18 422.84 115.86 M 431.32 121.22 C 428.19 123.35 429.91 127.64 429.55 130.81 C 431.64 130.79 433.74 130.77 435.85 130.72 C 435.60 127.41 436.66 120.11 431.32 121.22 Z" />
<path fill="#3b3b39" opacity="1.00" d=" M 451.11 113.19 C 454.52 113.15 457.93 113.18 461.34 113.21 C 461.30 115.22 461.26 117.23 461.24 119.24 C 463.31 115.63 466.41 112.59 470.78 112.23 C 470.90 116.65 470.81 121.08 470.91 125.51 C 468.41 125.74 465.44 125.54 463.62 127.60 C 462.02 129.65 462.01 132.44 461.84 134.92 C 461.81 142.44 461.82 149.96 461.86 157.48 C 458.26 157.43 454.67 157.42 451.09 157.50 C 451.08 142.73 451.07 127.96 451.11 113.19 Z" />
</g>
</svg>
